<?xml version="1.0" encoding="UTF-8"?>
<svg version="1.1" xmlns="http://www.w3.org/2000/svg" width="440" height="440">
<path d="M0 0 C8.06699778 0.4818438 13.95208646 2.72785279 20.94140625 6.59765625 C21.72036255 7.0198645 22.49931885 7.44207275 23.30187988 7.8770752 C25.20548391 8.91029334 27.1033489 9.95407331 29 11 C29.20529712 42.23670347 29.36457793 73.47322861 29.45958797 104.71044651 C29.47084438 108.39794853 29.48249327 112.0854492 29.49438477 115.77294922 C29.49674556 116.50706659 29.49910635 117.24118396 29.50153869 117.99754731 C29.54070482 129.88564402 29.61166772 141.77334919 29.69437516 153.66121359 C29.77852832 165.85857198 29.82852656 178.05572527 29.84679645 190.25336206 C29.85914834 197.78071701 29.89816155 205.30696535 29.9712482 212.83397965 C30.02443127 218.60502385 30.03009976 224.37535845 30.01796913 230.14659882 C30.02044872 232.51460717 30.0383998 234.88265674 30.07284927 237.2504158 C30.11756211 240.48161322 30.10690058 243.70805685 30.08229065 246.93936157 C30.10850622 247.8790578 30.1347218 248.81875404 30.16173178 249.78692591 C30.07969952 253.76443258 29.97298091 256.06019829 27.03178966 258.90109324 C23.08236111 261.58522186 18.92583637 263.73138387 14.4375 265.375 C13.59058594 265.69210937 12.74367188 266.00921875 11.87109375 266.3359375 C11.25363281 266.55507813 10.63617188 266.77421875 10 267 C9 266 9 266 8.87859482 264.22840196 C8.88111262 263.05823605 8.88111262 263.05823605 8.8836813 261.86443043 C8.88287002 260.51892006 8.88287002 260.51892006 8.88204235 259.14622766 C8.88876062 257.65093901 8.88876062 257.65093901 8.89561462 256.1254425 C8.89632117 255.07526497 8.89702772 254.02508743 8.89775568 252.94308633 C8.90115276 249.39473442 8.91151901 245.84643435 8.92163086 242.2980957 C8.92514419 239.76584439 8.92811217 237.23359227 8.93057251 234.70133972 C8.93478947 230.64748806 8.93936246 226.59364138 8.9463681 222.53979361 C8.963687 212.48314717 8.96613574 202.42657669 8.95936584 192.36991882 C8.95890731 191.64337913 8.95844877 190.91683943 8.95797633 190.16828338 C8.95562644 186.45194875 8.95310808 182.73561427 8.95046723 179.01927984 C8.94502734 171.35440628 8.93995724 163.68953308 8.93676758 156.0246582 C8.93627763 154.87049933 8.93627763 154.87049933 8.93577779 153.69302412 C8.93126894 141.22961346 8.95204896 128.76635752 8.98128145 116.302986 C9.01060896 103.51336217 9.00954306 90.72398961 8.98107058 77.93436307 C8.96452719 70.04246556 8.972213 62.15134493 9.0108828 54.25952157 C9.03806408 48.2100459 9.02335615 42.16141618 8.99296951 36.11192513 C8.98713876 33.62948703 8.99503669 31.14697365 9.01756096 28.66463089 C9.04627389 25.27829945 9.02596033 21.89568972 8.99327087 18.50947571 C9.01336478 17.52377022 9.03345868 16.53806472 9.05416149 15.52248937 C8.98236829 10.29040387 8.98236829 10.29040387 6.1527549 6.09054029 C3.98232352 4.44796487 3.98232352 4.44796487 1.71508032 3.13833874 C1.14910381 2.76268696 0.58312731 2.38703517 0 2 C0 1.34 0 0.68 0 0 Z " fill="#DCB67B" transform="translate(263,35)"/>
<path d="M0 0 C0 26.07 0 52.14 0 79 C-2.64 79 -5.28 79 -8 79 C-9 78 -9 78 -9.12025452 75.18431091 C-9.11803391 73.92522415 -9.11581329 72.66613739 -9.11352539 71.36889648 C-9.11367142 70.67624695 -9.11381744 69.98359741 -9.1139679 69.2699585 C-9.11326874 66.97030554 -9.10547628 64.67073263 -9.09765625 62.37109375 C-9.09579208 60.78068588 -9.09436817 59.19027743 -9.09336853 57.59986877 C-9.08954329 53.4060407 -9.07971295 49.21224705 -9.06866455 45.01843262 C-9.05845057 40.74211086 -9.05387094 36.46578356 -9.04882812 32.18945312 C-9.03809069 23.79295292 -9.02101419 15.39648074 -9 7 C-12.98370038 7.45956335 -16.96651354 7.92642802 -20.94921875 8.39453125 C-22.06776245 8.52347778 -23.18630615 8.65242432 -24.33874512 8.78527832 C-53.3253453 12.21014682 -78.66236514 23.29473342 -101 42 C-102.15435547 42.92425781 -102.15435547 42.92425781 -103.33203125 43.8671875 C-109.03065112 48.56545792 -113.47357336 54.19362875 -118 60 C-118.52335937 60.64582031 -119.04671875 61.29164062 -119.5859375 61.95703125 C-140.68612624 88.71113796 -149.18197437 123.42700416 -145.5 157.08984375 C-140.91903817 192.96016303 -123.9626555 225.41520481 -95.25390625 248.0234375 C-70.80891691 266.60024939 -45.37722736 274.93340765 -15 277 C-14.66842636 262.28181435 -15.56255642 248.31758533 -19.125 234 C-22.72487692 219.38486183 -22.72487692 219.38486183 -18.5625 212.5 C-17.44294404 210.89243247 -16.38430372 209.38430372 -15 208 C-13.14712498 207.92773498 -11.29166122 207.9161878 -9.4375 207.9375 C-8.42558594 207.94652344 -7.41367188 207.95554688 -6.37109375 207.96484375 C-5.19740234 207.98224609 -5.19740234 207.98224609 -4 208 C-3.68467917 212.51447139 -3.68467917 212.51447139 -5.12890625 214.73828125 C-5.60199219 215.25777344 -6.07507813 215.77726563 -6.5625 216.3125 C-8.72067578 219.1737642 -9 219.77242416 -9 223.5625 C-8.69873846 225.04853049 -8.3593961 226.52694889 -8 228 C-7.49795047 230.33289321 -6.99812882 232.66626648 -6.5 235 C-6.11328125 236.7015625 -6.11328125 236.7015625 -5.71875 238.4375 C-4.23072513 245.8129276 -3.75519293 253.12431568 -3.4375 260.625 C-3.3950415 261.58615723 -3.35258301 262.54731445 -3.30883789 263.53759766 C-2.99700953 271.03026228 -2.88482201 278.50063342 -3 286 C-45.04205185 287.03525699 -81.51876195 273.97034893 -112.2265625 244.7734375 C-116.54201221 240.45798779 -120.32259628 235.86429064 -124 231 C-124.40460449 230.47567383 -124.80920898 229.95134766 -125.22607422 229.41113281 C-147.64842947 200.22155385 -157.60518129 162.46826176 -153.5 125.93359375 C-152.87096878 121.2444953 -152.00121173 116.62282931 -151 112 C-150.8443457 111.27039063 -150.68869141 110.54078125 -150.52832031 109.7890625 C-146.26860988 90.67563126 -137.75421319 72.62885736 -126 57 C-125.28328125 56.04222656 -124.5665625 55.08445313 -123.828125 54.09765625 C-113.2980429 40.70446788 -101.27208069 30.22518182 -87 21 C-86.41138184 20.61473145 -85.82276367 20.22946289 -85.21630859 19.83251953 C-63.10654045 5.58084815 -26.50204603 -6.62551151 0 0 Z " fill="#CB9F60" transform="translate(226,26)"/>
<path d="M0 0 C3.9554757 1.97773785 6.99452867 4.33525084 10.3125 7.1875 C10.88774414 7.67855225 11.46298828 8.16960449 12.05566406 8.67553711 C23.08339996 18.16679992 23.08339996 18.16679992 25 22 C25.28396543 27.08298128 25.31372881 32.16691591 25.35009766 37.25708008 C25.36664824 38.95546174 25.39392685 40.65377401 25.43212891 42.35180664 C25.48699658 44.80391463 25.50878513 47.25439147 25.5234375 49.70703125 C25.54610687 50.46240677 25.56877625 51.21778229 25.59213257 51.99604797 C25.58349609 54.15942383 25.58349609 54.15942383 25 58 C24.17517813 58.77376543 23.35035625 59.54753086 22.50053978 60.34474373 C19.43965902 63.59501109 19.38277799 64.9336755 19.40786743 69.32467651 C19.40269608 70.60038513 19.39752472 71.87609375 19.39219666 73.19046021 C19.41161113 74.59686847 19.43144639 76.00327097 19.45166016 77.40966797 C19.45466907 78.89656291 19.45537857 80.38346402 19.45396423 81.87036133 C19.45533497 85.06863038 19.47194493 88.26632969 19.50011063 91.46447372 C19.54355942 96.52444255 19.5468394 101.58394821 19.54354858 106.64407349 C19.54143652 119.21264122 19.58782324 131.78097497 19.652771 144.34936523 C19.702969 154.11693803 19.7378991 163.88400327 19.72430074 173.65172303 C19.71902976 178.67899453 19.74616919 183.70471525 19.79787087 188.73170829 C19.82291395 191.86352789 19.81878852 194.99481828 19.80668831 198.12669373 C19.80697775 199.57511413 19.8192201 201.0235909 19.84452248 202.47179031 C20.02603464 213.39641691 20.02603464 213.39641691 17.47703171 217.38023758 C15.74024239 219.14474387 14.02123672 220.57851003 12 222 C11.15953125 222.73089844 10.3190625 223.46179688 9.453125 224.21484375 C8.36257813 225.06755859 8.36257813 225.06755859 7.25 225.9375 C6.51265625 226.52402344 5.7753125 227.11054688 5.015625 227.71484375 C3 229 3 229 0 229 C0 153.43 0 77.86 0 0 Z " fill="#E1BE83" transform="translate(303,54)"/>
<path d="M0 0 C2.61002506 0.37243508 5.16476433 0.80956243 7.75 1.3125 C8.82507813 1.50875977 8.82507813 1.50875977 9.921875 1.70898438 C13.95143665 2.47563811 17.10021683 3.44008673 21 5 C21 57.8 21 110.6 21 165 C20.34 165.33 19.68 165.66 19 166 C15.62376797 157.34957262 12.28638837 148.68498115 9 140 C8.69239746 139.18756836 8.38479492 138.37513672 8.06787109 137.53808594 C4.67206482 128.43552772 2.90700709 119.66159731 2 110 C1.91949402 109.32901276 1.83898804 108.65802551 1.75604248 107.96670532 C0.76358072 98.92044541 0.80232196 89.85578792 0.73963928 80.76657486 C0.7183918 77.70621911 0.69139473 74.64595979 0.66296387 71.58566284 C0.59357832 63.99496367 0.53367707 56.40419575 0.47393799 48.81341553 C0.42295539 42.37522903 0.36815163 35.9370978 0.30812073 29.49898911 C0.28161883 26.48722741 0.26077095 23.47546017 0.2401123 20.46365356 C0.22350971 18.61915839 0.20663791 16.77466562 0.18945312 14.93017578 C0.18526871 14.09581497 0.18108429 13.26145416 0.17677307 12.40180969 C0.13410839 8.44661053 -0.17546353 4.8826162 -1 1 C-0.67 0.67 -0.34 0.34 0 0 Z " fill="#E4C084" transform="translate(240,28)"/>
<path d="M0 0 C0 6.93 0 13.86 0 21 C-3.63069864 21.72613973 -5.96618621 22.11180616 -9.49758911 21.97512817 C-10.36890472 21.94429138 -11.24022034 21.91345459 -12.13793945 21.88168335 C-13.0812915 21.84225616 -14.02464355 21.80282898 -14.99658203 21.76220703 C-16.00067108 21.72494507 -17.00476013 21.68768311 -18.03927612 21.64929199 C-21.36236655 21.52450741 -24.68505876 21.39123984 -28.0078125 21.2578125 C-30.33167722 21.16861894 -32.65556067 21.07991191 -34.97946167 20.9916687 C-39.86031469 20.80514918 -44.74099757 20.61480461 -49.62158203 20.42138672 C-55.82637468 20.17549645 -62.03138322 19.93576128 -68.23651314 19.69854927 C-74.2020241 19.47030923 -80.16742658 19.23929452 -86.1328125 19.0078125 C-87.24833622 18.96467045 -88.36385994 18.9215284 -89.51318741 18.87707901 C-100.23704702 18.4603813 -110.96026471 18.02967031 -121.67919922 17.49951172 C-122.43977694 17.46408327 -123.20035465 17.42865482 -123.98398018 17.39215279 C-128.05412545 17.18149462 -131.99496406 16.7570648 -136 16 C-135.49513741 11.65818169 -134.76196064 8.4524508 -132 5 C-127.14466863 3.50712922 -121.85918947 3.69637626 -116.81982422 3.51928711 C-115.79622803 3.4801268 -114.77263184 3.44096649 -113.71801758 3.40061951 C-110.33037957 3.27213021 -106.94255662 3.1495762 -103.5546875 3.02734375 C-101.1859545 2.93934596 -98.81723107 2.85109021 -96.44851685 2.7625885 C-91.47374538 2.57763725 -86.49887883 2.39557513 -81.52392578 2.21557617 C-75.19768082 1.98649462 -68.87170682 1.75073756 -62.54578972 1.51279354 C-57.64516606 1.32915841 -52.74441997 1.14897403 -47.84363174 0.96978951 C-45.51478529 0.88427708 -43.18597474 0.79778016 -40.85720444 0.71021843 C-27.22682149 0.20004689 -13.6405112 -0.09042085 0 0 Z " fill="#C9A165" transform="translate(226,108)"/>
<path d="M0 0 C17.97569233 -0.02332821 35.95138074 -0.04097879 53.92708492 -0.05181217 C62.27292829 -0.0569753 70.61876227 -0.06401831 78.96459961 -0.07543945 C86.2361877 -0.08538579 93.50776899 -0.09185331 100.77936369 -0.09408849 C104.63199521 -0.09539569 108.48460728 -0.09848208 112.33723259 -0.10573006 C115.95932672 -0.11248948 119.58139328 -0.11461712 123.20349312 -0.11310768 C125.17497228 -0.11351637 127.14644841 -0.11891197 129.11791992 -0.12442017 C130.28044785 -0.1230455 131.44297577 -0.12167084 132.64073181 -0.12025452 C133.65746947 -0.12117631 134.67420713 -0.1220981 135.72175503 -0.12304783 C138 0 138 0 139 1 C139.08651611 2.41570123 139.10704904 3.835595 139.09765625 5.25390625 C139.09515869 6.0229126 139.09266113 6.79191895 139.09008789 7.58422852 C139.08098389 8.56705811 139.07187988 9.5498877 139.0625 10.5625 C139.05113933 12.19746147 139.04017605 13.83242572 139.02952576 15.46739197 C139.02119799 16.74095755 139.02119799 16.74095755 139.01270199 18.04025173 C139.00851033 18.68696866 139.00431868 19.33368559 139 20 C122.22935962 20.32687963 105.89265695 19.51915581 89.23046875 17.6640625 C86.96335391 17.42118017 84.69612375 17.17937225 82.42878723 16.93856812 C77.73149008 16.43705844 73.0352116 15.92720268 68.33959961 15.41015625 C62.35095569 14.7507855 56.36084373 14.10616878 50.37002087 13.46692848 C44.59380852 12.85002126 38.81835319 12.22616539 33.04296875 11.6015625 C31.96124075 11.48508991 30.87951275 11.36861732 29.76500511 11.24861526 C7.86603794 8.8811176 7.86603794 8.8811176 -2 7 C-1.34 4.69 -0.68 2.38 0 0 Z " fill="#CAA265" transform="translate(87,131)"/>
<path d="M0 0 C0.66 0 1.32 0 2 0 C2 32.34 2 64.68 2 98 C-8.125 101.375 -8.125 101.375 -12.5625 101.6875 C-13.40941406 101.75324219 -14.25632813 101.81898438 -15.12890625 101.88671875 C-16.05509766 101.94279297 -16.05509766 101.94279297 -17 102 C-17.07516846 101.03924561 -17.15033691 100.07849121 -17.2277832 99.08862305 C-18.86988444 76.24865796 -18.86988444 76.24865796 -22.08520508 53.59643555 C-24.04717112 42.88654849 -24.04717112 42.88654849 -21.50390625 38.3046875 C-20.86324219 37.50289062 -20.22257813 36.70109375 -19.5625 35.875 C-16.96415798 32.58901595 -15.27891333 30.25172758 -15 26 C-15.68588886 23.93457102 -15.68588886 23.93457102 -16.875 22.0625 C-18.70031605 18.6917073 -19.90901019 15.91256174 -20 12 C-18.05481277 9.6210428 -15.9864016 8.31756856 -13.2421875 6.9921875 C-12.18064453 6.47205078 -12.18064453 6.47205078 -11.09765625 5.94140625 C-9.99744141 5.41353516 -9.99744141 5.41353516 -8.875 4.875 C-4.12257663 2.87871087 -4.12257663 2.87871087 0 0 Z " fill="#C2985D" transform="translate(259,208)"/>
<path d="M0 0 C3.3 0 6.6 0 10 0 C10.24121582 0.73935791 10.48243164 1.47871582 10.73095703 2.24047852 C11.85725352 5.68283262 12.99014514 9.12295779 14.125 12.5625 C14.53081299 13.79564941 14.93662598 15.02879883 15.35473633 16.29931641 C17.95334381 24.110035 20.77569867 31.69571337 24.19921875 39.1796875 C25.19766586 42.6961695 24.7223559 43.82760113 23 47 C20.87695312 48.39379883 20.87695312 48.39379883 18.28125 49.45703125 C17.34925781 49.84697266 16.41726562 50.23691406 15.45703125 50.63867188 C14.48121094 51.02603516 13.50539062 51.41339844 12.5 51.8125 C11.52417969 52.21919922 10.54835937 52.62589844 9.54296875 53.04492188 C2.36138393 56 2.36138393 56 0 56 C0.93751346 60.11063592 1.88962396 63.74392759 3.5625 67.625 C4.92927364 70.83394681 5.67030885 73.53824297 6 77 C4.07747368 78.92252632 0.5143319 78.1637911 -2.10546875 78.16796875 C-2.82229324 78.17129715 -3.53911774 78.17462555 -4.27766418 78.17805481 C-5.80009315 78.18312933 -7.32253329 78.18546297 -8.8449707 78.18530273 C-11.16051 78.18747468 -13.47556165 78.20558366 -15.79101562 78.22460938 C-17.27083171 78.22754621 -18.75065005 78.22952906 -20.23046875 78.23046875 C-20.9181987 78.23765427 -21.60592865 78.24483978 -22.3144989 78.25224304 C-26.58183942 78.23225986 -30.03097179 77.5557789 -34 76 C-34 75.01 -34 74.02 -34 73 C-32.12577848 72.51779737 -30.25058246 72.03938167 -28.375 71.5625 C-27.33085937 71.29566406 -26.28671875 71.02882813 -25.2109375 70.75390625 C-19.33113888 69.37336959 -14.00898445 68.89639682 -8 69 C-8.30035156 68.27554688 -8.60070312 67.55109375 -8.91015625 66.8046875 C-12.89339698 56.6778043 -12.89339698 56.6778043 -11 52 C-7.45658284 47.93453243 -3.71249648 45.54793258 1.125 43.3125 C4.54696124 41.68689055 7.83701508 40.10865662 11 38 C10.66790527 37.19332886 10.66790527 37.19332886 10.32910156 36.37036133 C-1.83732485 6.70441055 -1.83732485 6.70441055 0 0 Z " fill="#D8AE6F" transform="translate(217,154)"/>
<path d="M0 0 C4.29153445 -0.08807085 8.58283224 -0.14074921 12.875 -0.1875 C14.07898438 -0.21263672 15.28296875 -0.23777344 16.5234375 -0.26367188 C25.05366827 -0.3332118 33.09808382 -0.08901697 40 5.375 C43.14538465 9.50331736 44.04202333 11.67626496 43.875 16.9375 C43.1672685 21.11311586 41.89512224 23.81536554 39 27 C33.03171677 30.99539958 26.07826336 32.3430551 19 31 C18.34 30.01 17.68 29.02 17 28 C17.59167969 27.90203125 18.18335937 27.8040625 18.79296875 27.703125 C23.74131397 26.76673341 27.62604916 26.00656663 31 22 C32.19534347 18.22398123 32.24992019 15.02240076 31.3125 11.1875 C29.9113924 8.54052671 29.9113924 8.54052671 26 6 C22.7 5.67 19.4 5.34 16 5 C16.33 19.19 16.66 33.38 17 48 C18.65 48.66 20.3 49.32 22 50 C22 50.99 22 51.98 22 53 C14.74 53 7.48 53 0 53 C0 52.01 0 51.02 0 50 C1.32 49.34 2.64 48.68 4 48 C4 33.81 4 19.62 4 5 C2.68 4.34 1.36 3.68 0 3 C0 2.01 0 1.02 0 0 Z " fill="#DBB072" transform="translate(54,353)"/>
<path d="M0 0 C6.6 0 13.2 0 20 0 C20.33 0.99 20.66 1.98 21 3 C19.02 3.99 19.02 3.99 17 5 C16.92552733 9.58980814 16.87124678 14.17926014 16.83520508 18.76953125 C16.82017131 20.32916394 16.79973865 21.88875472 16.77368164 23.44824219 C16.73705789 25.69737116 16.72021979 27.94593847 16.70703125 30.1953125 C16.69154739 30.8861795 16.67606354 31.57704651 16.66011047 32.28884888 C16.65851546 36.93628818 17.57335156 40.04793532 20 44 C23.67143125 47.23949816 27.13705243 47.46527873 31.8515625 47.28515625 C36.04644372 46.72838111 38.20607213 45.02076441 40.75 41.75 C43.90916466 34.79983774 43.18319785 26.72714032 43.1875 19.25 C43.20586914 17.54650391 43.20586914 17.54650391 43.22460938 15.80859375 C43.22654297 14.72191406 43.22847656 13.63523437 43.23046875 12.515625 C43.23457764 11.52852539 43.23868652 10.54142578 43.24291992 9.52441406 C43.17690013 6.75352818 43.17690013 6.75352818 41 4 C40.01 3.67 39.02 3.34 38 3 C38 2.01 38 1.02 38 0 C43.28 0 48.56 0 54 0 C54 0.99 54 1.98 54 3 C52.78111084 3.59590942 52.78111084 3.59590942 51.53759766 4.20385742 C48.61251042 5.82792874 48.61251042 5.82792874 48.38818359 9.45825195 C48.36732388 10.88477998 48.37240877 12.31183818 48.3984375 13.73828125 C48.39043121 14.49666794 48.38242493 15.25505463 48.37417603 16.03642273 C48.35108453 18.46232346 48.360567 20.88655387 48.375 23.3125 C48.37885655 25.72742347 48.37531291 28.14160144 48.35440063 30.55644226 C48.34238371 32.05787267 48.34486149 33.55951213 48.36410522 35.06086731 C48.33903196 39.79740044 47.4981609 42.97928042 45 47 C39.58226407 52.2973418 35.08513189 54.06554391 27.625 54.3125 C20.29345995 54.16308003 14.27733125 52.27733125 9 47 C5.4164065 40.98468234 4.88254976 35.63708459 4.68359375 28.73046875 C4.6524221 27.70896477 4.6524221 27.70896477 4.62062073 26.66682434 C4.55562122 24.50714492 4.49647288 22.34735154 4.4375 20.1875 C4.3942675 18.71678544 4.35065175 17.24608209 4.30664062 15.77539062 C4.19999141 12.18371283 4.09858651 8.59190918 4 5 C2.68 4.34 1.36 3.68 0 3 C0 2.01 0 1.02 0 0 Z " fill="#CFA86C" transform="translate(160,353)"/>
<path d="M0 0 C6.6 0 13.2 0 20 0 C20 0.99 20 1.98 20 3 C19.34950684 3.59780273 18.69901367 4.19560547 18.02880859 4.81152344 C15.38286415 7.66570466 15.50925235 9.17303836 15.5390625 13.015625 C15.54292969 14.18480469 15.54679687 15.35398437 15.55078125 16.55859375 C15.57527344 17.77675781 15.59976562 18.99492187 15.625 20.25 C15.62628906 21.45269531 15.62757813 22.65539062 15.62890625 23.89453125 C15.49578388 34.84160068 15.49578388 34.84160068 20 44.4375 C24.34225129 47.82988382 28.6688378 47.45407375 34 47 C37.54018863 45.64418308 38.63759534 44.59164744 40.6105957 41.37060547 C42.19646214 37.52339548 42.38448576 34.27866771 42.29296875 30.1953125 C42.28660149 29.1093428 42.28660149 29.1093428 42.28010559 28.00143433 C42.26342972 25.70889713 42.22580081 23.41726754 42.1875 21.125 C42.17243871 19.56251278 42.15875284 18.00001165 42.14648438 16.4375 C42.11356293 12.62465495 42.06186002 8.81248089 42 5 C39.525 4.01 39.525 4.01 37 3 C37.33 2.01 37.66 1.02 38 0 C42.95 0 47.9 0 53 0 C53.495 1.485 53.495 1.485 54 3 C52.35 3.33 50.7 3.66 49 4 C48.98541748 5.02359619 48.97083496 6.04719238 48.95581055 7.10180664 C48.89753495 10.92457811 48.82030579 14.74677845 48.73754883 18.5690918 C48.7044364 20.2187366 48.67636244 21.86849096 48.65356445 23.51831055 C48.61976467 25.89939768 48.56743996 28.27949306 48.51171875 30.66015625 C48.50213387 31.75433617 48.50213387 31.75433617 48.49235535 32.87062073 C48.31476689 39.15262605 46.8062798 43.79232469 42.75 48.75 C36.72152828 53.68238595 31.67210956 54.56839302 24.00390625 54.34765625 C18.08314343 53.66241842 13.14066221 51.60946077 9.0625 47.1875 C5.39636385 41.52165322 4.74615778 35.96554799 4.5859375 29.31640625 C4.55688828 28.26585304 4.55688828 28.26585304 4.5272522 27.19407654 C4.46805109 24.98367019 4.42131275 22.77321005 4.375 20.5625 C4.33676524 19.05271319 4.29771042 17.5429469 4.2578125 16.03320312 C4.1624003 12.35565801 4.07815301 8.67795706 4 5 C2.68 4.34 1.36 3.68 0 3 C0 2.01 0 1.02 0 0 Z " fill="#D9AD6F" transform="translate(284,353)"/>
<path d="M0 0 C1 1 1 1 1.09765625 3.72265625 C1.08605469 4.82480469 1.07445312 5.92695313 1.0625 7.0625 C1.05347656 8.16722656 1.04445313 9.27195312 1.03515625 10.41015625 C1.02355469 11.26480469 1.01195312 12.11945313 1 13 C-0.89453125 12.71484375 -0.89453125 12.71484375 -3 12 C-3.556875 10.865625 -4.11375 9.73125 -4.6875 8.5625 C-5.91912773 6.21076988 -6.61379303 5.19460624 -9.0078125 3.98828125 C-12.94328027 2.94104661 -16.12868088 2.68159648 -20 4.0625 C-23.13444097 5.69480294 -23.13444097 5.69480294 -24.0625 8.4375 C-23.99157552 11.34540378 -23.57017812 12.5692605 -22 15 C-19.79207677 16.52675797 -19.79207677 16.52675797 -17.1328125 17.76953125 C-15.68068359 18.51493164 -15.68068359 18.51493164 -14.19921875 19.27539062 C-12.1606675 20.29466625 -10.11901488 21.30776412 -8.07421875 22.31445312 C-2.01775473 25.43920249 1.42698717 27.58251478 4 34 C4.68763874 38.8134712 4.03025923 42.26413573 1.40234375 46.42578125 C-2.6876214 51.01702346 -8.97721381 52.74601554 -14.91796875 53.12109375 C-21.07107214 53.30623137 -27.02396069 52.46199533 -33 51 C-34 50 -34 50 -34.09765625 46.83984375 C-34.08025391 44.90818359 -34.08025391 44.90818359 -34.0625 42.9375 C-34.05347656 41.64714844 -34.04445313 40.35679687 -34.03515625 39.02734375 C-34.02355469 38.02832031 -34.01195312 37.02929688 -34 36 C-33.01 36 -32.02 36 -31 36 C-30.89945312 36.61488281 -30.79890625 37.22976563 -30.6953125 37.86328125 C-30.07108034 40.54405907 -29.40433011 42.62441165 -28 45 C-23.61013919 47.61975564 -19.15692622 48 -14.125 48 C-10.22517576 46.75205624 -8.92286059 45.6053636 -7 42 C-6.51204276 38.92334263 -6.51204276 38.92334263 -8 36 C-12.0646517 32.38697627 -17.3407846 30.34557091 -22.1875 28 C-26.66691557 25.79988301 -29.91895568 23.93098759 -33 20 C-34.59121454 15.22635638 -34.79879085 10.84983145 -32.8125 6.25 C-24.30119538 -4.31575746 -11.95501068 -2.87844721 0 0 Z " fill="#D6AB6C" transform="translate(386,354)"/>
<path d="M0 0 C0.77943466 0.00222061 1.55886932 0.00444122 2.36192322 0.00672913 C3.68317955 0.00684242 3.68317955 0.00684242 5.03112793 0.00695801 C5.98841293 0.01211929 6.94569794 0.01728058 7.93199158 0.02259827 C9.39480812 0.02472069 9.39480812 0.02472069 10.88717651 0.02688599 C14.01542675 0.03250319 17.14360656 0.04505859 20.27183533 0.05775452 C22.38706867 0.0627673 24.50230313 0.06733059 26.61753845 0.07142639 C31.8148314 0.08247821 37.0120714 0.09975436 42.20933533 0.12025452 C42.70433533 6.06025452 42.70433533 6.06025452 43.20933533 12.12025452 C42.21933533 12.45025452 41.22933533 12.78025452 40.20933533 13.12025452 C39.56996033 12.15087952 38.93058533 11.18150452 38.27183533 10.18275452 C36.51280943 7.35989183 36.51280943 7.35989183 35.20933533 6.12025452 C31.90933533 5.79025452 28.60933533 5.46025452 25.20933533 5.12025452 C25.53933533 19.64025452 25.86933533 34.16025452 26.20933533 49.12025452 C28.18933533 49.78025452 30.16933533 50.44025452 32.20933533 51.12025452 C31.71433533 52.11025452 31.71433533 52.11025452 31.20933533 53.12025452 C24.27933533 53.12025452 17.34933533 53.12025452 10.20933533 53.12025452 C9.71433533 51.63525452 9.71433533 51.63525452 9.20933533 50.12025452 C11.68433533 49.62525452 11.68433533 49.62525452 14.20933533 49.12025452 C14.53933533 34.60025452 14.86933533 20.08025452 15.20933533 5.12025452 C6.03107021 5.16709181 6.03107021 5.16709181 2.70933533 7.99525452 C1.5163516 9.68531479 0.35684285 11.39899324 -0.79066467 13.12025452 C-1.45066467 13.12025452 -2.11066467 13.12025452 -2.79066467 13.12025452 C-2.8175302 11.14116054 -2.83699843 9.16196481 -2.85316467 7.18275452 C-2.86476624 6.08060608 -2.8763678 4.97845764 -2.88832092 3.84291077 C-2.75712464 0.18515845 -2.75712464 0.18515845 0 0 Z " fill="#D5AB70" transform="translate(228.79066467285156,352.87974548339844)"/>
<path d="M0 0 C6.93 0 13.86 0 21 0 C21 0.99 21 1.98 21 3 C19.02 3.99 19.02 3.99 17 5 C16.67 19.19 16.34 33.38 16 48 C28.10557281 48.04349839 28.10557281 48.04349839 34 44 C35.00568242 42.33675599 36.00664799 40.67063747 37 39 C37.99 39 38.98 39 40 39 C39.85923685 40.9587043 39.7122324 42.91696093 39.5625 44.875 C39.48128906 45.96554687 39.40007812 47.05609375 39.31640625 48.1796875 C39 51 39 51 38 53 C25.79 53 13.58 53 1 53 C0.505 51.515 0.505 51.515 0 50 C1.32 49.34 2.64 48.68 4 48 C4.19227275 42.21623818 4.37099427 36.43227738 4.53710938 30.64770508 C4.59554705 28.67949162 4.65770176 26.7113849 4.72363281 24.7434082 C4.81770094 21.91637605 4.89844184 19.08923091 4.9765625 16.26171875 C5.00875885 15.38037766 5.0409552 14.49903656 5.0741272 13.59098816 C5.09429901 12.77036392 5.11447083 11.94973969 5.13525391 11.10424805 C5.15746002 10.38254929 5.17966614 9.66085052 5.20254517 8.9172821 C5.11510761 6.6697589 5.11510761 6.6697589 3 4 C2.01 3.67 1.02 3.34 0 3 C0 2.01 0 1.02 0 0 Z " fill="#CEA56A" transform="translate(111,353)"/>
<path d="M0 0 C4.95 0 9.9 0 15 0 C14.98428955 2.1042334 14.98428955 2.1042334 14.96826172 4.25097656 C14.93206914 9.45423838 14.90910213 14.65748905 14.89013672 19.86083984 C14.88007747 22.11313752 14.86642854 24.36542214 14.84912109 26.61767578 C14.82486969 29.85452498 14.8135161 33.09120155 14.8046875 36.328125 C14.79436493 37.33554749 14.78404236 38.34296997 14.77340698 39.38092041 C14.77318039 40.79193024 14.77318039 40.79193024 14.77294922 42.23144531 C14.768508 43.05751282 14.76406677 43.88358032 14.75949097 44.73468018 C15.02356737 47.22197764 15.75429493 48.84933375 17 51 C15 52 15 52 5 52 C4.67 36.49 4.34 20.98 4 5 C2.68 4.34 1.36 3.68 0 3 C0 2.01 0 1.02 0 0 Z " fill="#D2A76A" transform="translate(54,353)"/>
<path d="M0 0 C1.65 0 3.3 0 5 0 C5.33 0.99 5.66 1.98 6 3 C4.02 3.99 4.02 3.99 2 5 C1.92552733 9.58980814 1.87124678 14.17926014 1.83520508 18.76953125 C1.82017131 20.32916394 1.79973865 21.88875472 1.77368164 23.44824219 C1.73705789 25.69737116 1.72021979 27.94593847 1.70703125 30.1953125 C1.69154739 30.8861795 1.67606354 31.57704651 1.66011047 32.28884888 C1.65851546 36.93628818 2.57335156 40.04793532 5 44 C8.67143125 47.23949816 12.13705243 47.46527873 16.8515625 47.28515625 C21.04644372 46.72838111 23.20607213 45.02076441 25.75 41.75 C28.90916466 34.79983774 28.18319785 26.72714032 28.1875 19.25 C28.20586914 17.54650391 28.20586914 17.54650391 28.22460938 15.80859375 C28.22654297 14.72191406 28.22847656 13.63523437 28.23046875 12.515625 C28.23663208 11.03497559 28.23663208 11.03497559 28.24291992 9.52441406 C28.17690013 6.75352818 28.17690013 6.75352818 26 4 C25.01 3.67 24.02 3.34 23 3 C23 2.01 23 1.02 23 0 C28.28 0 33.56 0 39 0 C39 0.99 39 1.98 39 3 C37.78111084 3.59590942 37.78111084 3.59590942 36.53759766 4.20385742 C33.61251042 5.82792874 33.61251042 5.82792874 33.38818359 9.45825195 C33.36732388 10.88477998 33.37240877 12.31183818 33.3984375 13.73828125 C33.39043121 14.49666794 33.38242493 15.25505463 33.37417603 16.03642273 C33.35108453 18.46232346 33.360567 20.88655387 33.375 23.3125 C33.37885655 25.72742347 33.37531291 28.14160144 33.35440063 30.55644226 C33.34238371 32.05787267 33.34486149 33.55951213 33.36410522 35.06086731 C33.33541741 40.48021683 32.15488007 44.52129916 28.5703125 48.64453125 C25.43543388 51.17785208 23.04049787 52.64348548 19 53 C18.67 52.34 18.34 51.68 18 51 C15.87978313 50.53378911 15.87978313 50.53378911 13.375 50.25 C8.0134929 49.27448223 4.4102829 47.29191853 1 43 C-1.1725442 38.7250574 -1.26281324 34.76868092 -1.1953125 30.07421875 C-1.1924826 29.32662796 -1.18965271 28.57903717 -1.18673706 27.80879211 C-1.17559469 25.4348612 -1.15050162 23.06131575 -1.125 20.6875 C-1.11496249 19.0722711 -1.10583799 17.45703624 -1.09765625 15.84179688 C-1.07567489 11.89438406 -1.04118657 7.94725726 -1 4 C-0.34 4 0.32 4 1 4 C0.67 2.68 0.34 1.36 0 0 Z " fill="#E2B16D" transform="translate(175,353)"/>
<path d="M0 0 C1.1240625 -0.00257812 2.248125 -0.00515625 3.40625 -0.0078125 C6.5 0.125 6.5 0.125 10.5 1.125 C10.5 27.195 10.5 53.265 10.5 80.125 C7.86 80.125 5.22 80.125 2.5 80.125 C1.5 79.125 1.5 79.125 1.37974548 76.30931091 C1.3830764 74.42068077 1.3830764 74.42068077 1.38647461 72.49389648 C1.38632858 71.80124695 1.38618256 71.10859741 1.3860321 70.3949585 C1.38673126 68.09530554 1.39452372 65.79573263 1.40234375 63.49609375 C1.40420792 61.90568588 1.40563183 60.31527743 1.40663147 58.72486877 C1.41045671 54.5310407 1.42028705 50.33724705 1.43133545 46.14343262 C1.44154943 41.86711086 1.44612906 37.59078356 1.45117188 33.31445312 C1.46190932 24.91795116 1.47950616 16.52148382 1.5 8.125 C-10.875 9.115 -10.875 9.115 -23.5 10.125 C-23.5 9.465 -23.5 8.805 -23.5 8.125 C-14.85111056 6.6920479 -6.28553329 5.46339241 2.5 6.125 C3.5 7.125 3.5 7.125 3.62025452 9.90272522 C3.6169236 11.76470802 3.6169236 11.76470802 3.61352539 13.66430664 C3.61367142 14.34720261 3.61381744 15.03009857 3.6139679 15.73368835 C3.61326876 18.00087614 3.6054764 20.26798274 3.59765625 22.53515625 C3.59579207 24.10314387 3.59436817 25.67113207 3.59336853 27.23912048 C3.58954334 31.37376503 3.57971306 35.50837466 3.56866455 39.64300537 C3.55845044 43.85900398 3.55387091 48.07500822 3.54882812 52.29101562 C3.53809079 60.56902647 3.52101436 68.8470089 3.5 77.125 C5.15 77.455 6.8 77.785 8.5 78.125 C8.5 53.375 8.5 28.625 8.5 3.125 C2.23 3.125 -4.04 3.125 -10.5 3.125 C-10.5 2.465 -10.5 1.805 -10.5 1.125 C-6.96994485 0.03483591 -3.68121037 -0.00844314 0 0 Z " fill="#EEC488" transform="translate(215.5,24.875)"/>
<path d="M0 0 C3.40312738 1.05875074 6.01353231 2.00902154 9 4 C9.36914349 6.80734444 9.36914349 6.80734444 9.36076355 10.46658325 C9.36332682 11.13799469 9.3658901 11.80940613 9.36853105 12.50116336 C9.37349112 14.76159569 9.35694033 17.02136702 9.34057617 19.28173828 C9.33973038 20.89777613 9.34020411 22.51381512 9.34190369 24.12985229 C9.34276692 28.52638813 9.32508825 32.92268005 9.30418181 37.31915903 C9.28546955 41.91025981 9.28366889 46.50136575 9.28010559 51.09249878 C9.27076906 59.79064787 9.24613358 68.48868428 9.21605712 77.18678367 C9.18256307 87.08747224 9.16603969 96.98816609 9.15097082 106.88889718 C9.11958538 127.25932776 9.06679372 147.62965679 9 168 C8.67 168 8.34 168 8 168 C6.79791196 151.34293238 6.86750977 134.68506983 6.89860606 117.99572587 C6.90494115 114.01063605 6.9054513 110.02554513 6.90663147 106.04045105 C6.90971529 98.52580842 6.9178881 91.01118067 6.92798096 83.49654454 C6.93923473 74.9279498 6.94467568 66.35935427 6.94967639 57.79075396 C6.96007386 40.19382742 6.97761497 22.5969153 7 5 C6.21625 4.690625 5.4325 4.38125 4.625 4.0625 C2 3 2 3 0 2 C0 1.34 0 0.68 0 0 Z " fill="#F7D396" transform="translate(283,42)"/>
<path d="M0 0 C0.77943466 0.00222061 1.55886932 0.00444122 2.36192322 0.00672913 C3.68317955 0.00684242 3.68317955 0.00684242 5.03112793 0.00695801 C5.98841293 0.01211929 6.94569794 0.01728058 7.93199158 0.02259827 C9.39480812 0.02472069 9.39480812 0.02472069 10.88717651 0.02688599 C14.01542675 0.03250319 17.14360656 0.04505859 20.27183533 0.05775452 C22.38706867 0.0627673 24.50230313 0.06733059 26.61753845 0.07142639 C31.8148314 0.08247821 37.0120714 0.09975436 42.20933533 0.12025452 C42.70433533 6.06025452 42.70433533 6.06025452 43.20933533 12.12025452 C42.21933533 12.45025452 41.22933533 12.78025452 40.20933533 13.12025452 C39.56996033 12.15087952 38.93058533 11.18150452 38.27183533 10.18275452 C36.51280943 7.35989183 36.51280943 7.35989183 35.20933533 6.12025452 C31.90933533 5.79025452 28.60933533 5.46025452 25.20933533 5.12025452 C25.20933533 18.65025452 25.20933533 32.18025452 25.20933533 46.12025452 C22.58730551 42.1872098 22.95785006 38.85400383 23.01402283 34.29603577 C23.01685272 33.43463486 23.01968262 32.57323395 23.02259827 31.68572998 C23.03379295 28.93459683 23.05889612 26.18378927 23.08433533 23.43275452 C23.09436605 21.56752484 23.10349174 19.70229007 23.11167908 17.83705139 C23.13372995 13.26466032 23.16825484 8.69251262 23.20933533 4.12025452 C23.86933533 4.12025452 24.52933533 4.12025452 25.20933533 4.12025452 C24.87933533 3.46025452 24.54933533 2.80025452 24.20933533 2.12025452 C22.62609845 2.09306152 21.04272471 2.07377146 19.45933533 2.05775452 C18.57761658 2.04615295 17.69589783 2.03455139 16.78746033 2.02259827 C14.42745153 2.11199254 12.46435008 2.45112631 10.20933533 3.12025452 C10.86933533 3.78025452 11.52933533 4.44025452 12.20933533 5.12025452 C11.60605408 5.19502014 11.00277283 5.26978577 10.38121033 5.34681702 C4.75328934 6.24553049 4.75328934 6.24553049 0.77183533 10.24525452 C0.25621033 11.19400452 -0.25941467 12.14275452 -0.79066467 13.12025452 C-1.45066467 13.12025452 -2.11066467 13.12025452 -2.79066467 13.12025452 C-2.8175302 11.14116054 -2.83699843 9.16196481 -2.85316467 7.18275452 C-2.86476624 6.08060608 -2.8763678 4.97845764 -2.88832092 3.84291077 C-2.75712464 0.18515845 -2.75712464 0.18515845 0 0 Z " fill="#E7B979" transform="translate(228.79066467285156,352.87974548339844)"/>
<path d="M0 0 C1.04796218 0.84643099 2.08792692 1.70276192 3.125 2.5625 C3.70507812 3.03816406 4.28515625 3.51382813 4.8828125 4.00390625 C5.58148438 4.66261719 6.28015625 5.32132812 7 6 C7.51377197 6.37608398 8.02754395 6.75216797 8.55688477 7.13964844 C11.92504031 10.09773718 12.91017574 12.38167577 13.56054688 16.85864258 C13.80109703 20.78587948 13.79775983 24.70147889 13.72729492 28.63427734 C13.6874775 31.12640836 13.70665041 33.61324512 13.73242188 36.10546875 C13.724865 37.6979372 13.71391377 39.29039393 13.69921875 40.8828125 C13.70620285 41.62250275 13.71318695 42.36219299 13.72038269 43.1242981 C13.6628418 45.23876953 13.6628418 45.23876953 13 49 C12.1749295 49.7166835 11.34985901 50.433367 10.49978638 51.17176819 C7.03514417 55.09162766 7.28868435 57.94571635 7.34057617 63.01293945 C7.33009247 63.91099808 7.31960876 64.8090567 7.30880737 65.73432922 C7.28007117 68.69433196 7.28634726 71.65316408 7.29296875 74.61328125 C7.27985287 76.66881271 7.26454898 78.72433129 7.24714661 80.77983093 C7.20727112 86.18363229 7.19710448 91.58709669 7.19311523 96.99102783 C7.18378867 102.50779458 7.14637806 108.02436294 7.11132812 113.54101562 C7.0467262 124.3606678 7.01350742 135.18017185 7 146 C6.34 146 5.68 146 5 146 C5 115.31 5 84.62 5 53 C5.66 53 6.32 53 7 53 C7 52.34 7 51.68 7 51 C7.48243164 50.62117676 7.96486328 50.24235352 8.46191406 49.85205078 C10.82315658 47.00881496 10.54677761 43.91135698 10.609375 40.3671875 C10.62647522 39.61591583 10.64357544 38.86464417 10.66119385 38.09060669 C10.68952347 36.49868398 10.709138 34.90658588 10.72070312 33.31445312 C10.74967905 30.90172457 10.84260568 28.4968464 10.9375 26.0859375 C11.22370161 17.60691451 11.22370161 17.60691451 7.97851562 10.01660156 C5.59477603 7.6189829 5.59477603 7.6189829 3.04003906 5.73095703 C0.80070403 3.83089894 0.35161826 2.86261409 0 0 Z " fill="#FBD899" transform="translate(315,63)"/>
<path d="M0 0 C0.99128906 0.18304687 1.98257812 0.36609375 3.00390625 0.5546875 C5.4375 1.125 5.4375 1.125 6.4375 2.125 C6.53334998 3.66853131 6.5593807 5.21645108 6.55775452 6.76295471 C6.55912918 7.76561371 6.56050385 8.76827271 6.56192017 9.80131531 C6.55832489 10.91045792 6.55472961 12.01960052 6.55102539 13.16235352 C6.55117142 14.32317444 6.55131744 15.48399536 6.5514679 16.67999268 C6.55076817 20.53798252 6.54297298 24.39592478 6.53515625 28.25390625 C6.53329228 30.92048728 6.53181912 33.58706564 6.53086853 36.25364685 C6.52775548 42.5682888 6.51954244 48.88291351 6.50951904 55.19754785 C6.4983571 62.38485633 6.49284725 69.57216561 6.48782361 76.7594806 C6.4773598 91.54799589 6.45976086 106.33649765 6.4375 121.125 C4.4375 119.125 4.4375 119.125 4.19140434 117.06728935 C4.19324793 116.21370905 4.19509151 115.36012875 4.19699097 114.48068237 C4.19424164 113.50189117 4.19149231 112.52309998 4.18865967 111.51464844 C4.19585022 110.43715332 4.20304077 109.3596582 4.21044922 108.24951172 C4.21015717 107.11780548 4.20986511 105.98609924 4.20956421 104.82009888 C4.21096188 101.0648848 4.22654374 97.30986708 4.2421875 93.5546875 C4.24591607 90.95679838 4.24876378 88.35890787 4.25076294 85.76101685 C4.25762911 79.6128341 4.27340538 73.46473287 4.29346192 67.31658089 C4.31579864 60.31788685 4.32680873 53.31918946 4.33685279 46.32046866 C4.35777103 31.92194098 4.39296091 17.52347301 4.4375 3.125 C2.43554688 2.89916992 0.43359375 2.67333984 -1.56835938 2.44750977 C-3.84932332 2.07861244 -5.60517007 1.34833121 -7.5625 0.125 C-4.7669585 -1.27277075 -3.04184015 -0.57902042 0 0 Z " fill="#F3CB92" transform="translate(254.5625,30.875)"/>
<path d="M0 0 C0.99 0.33 1.98 0.66 3 1 C2.67 41.92 2.34 82.84 2 125 C1.67 125 1.34 125 1 125 C0.1230381 117.74588782 -0.13878532 110.6106674 -0.11352539 103.30810547 C-0.11367142 102.18498459 -0.11381744 101.06186371 -0.1139679 99.90470886 C-0.11327621 96.22551481 -0.10551892 92.54637261 -0.09765625 88.8671875 C-0.09578942 86.30315173 -0.09436677 83.7391156 -0.09336853 81.17507935 C-0.08995217 75.13697971 -0.08208622 69.09890203 -0.07201904 63.06081116 C-0.0607992 56.18042253 -0.05533273 49.30003296 -0.05032361 42.41963744 C-0.03990182 28.27974818 -0.02233916 14.1398751 0 0 Z " fill="#FEDB98" transform="translate(303,54)"/>
<path d="M0 0 C1 1 1 1 1.12025452 3.85365295 C1.1169236 5.76893044 1.1169236 5.76893044 1.11352539 7.72290039 C1.11367142 8.4253035 1.11381744 9.1277066 1.1139679 9.85139465 C1.11326872 12.18351278 1.10547617 14.515552 1.09765625 16.84765625 C1.09579208 18.46048438 1.09436818 20.07331307 1.09336853 21.68614197 C1.08954323 25.93915357 1.07971285 30.19213124 1.06866455 34.44512939 C1.05845069 38.7817743 1.05387096 43.11842467 1.04882812 47.45507812 C1.03809059 55.97006769 1.02101403 64.48502963 1 73 C3.31 73 5.62 73 8 73 C8 73.33 8 73.66 8 74 C1.84765625 74.09765625 1.84765625 74.09765625 0 74 C-1 73 -1 73 -1.12025452 70.18431091 C-1.1169236 68.29568077 -1.1169236 68.29568077 -1.11352539 66.36889648 C-1.11367142 65.67624695 -1.11381744 64.98359741 -1.1139679 64.2699585 C-1.11326874 61.97030554 -1.10547628 59.67073263 -1.09765625 57.37109375 C-1.09579208 55.78068588 -1.09436817 54.19027743 -1.09336853 52.59986877 C-1.08954329 48.4060407 -1.07971295 44.21224705 -1.06866455 40.01843262 C-1.05845057 35.74211086 -1.05387094 31.46578356 -1.04882812 27.18945312 C-1.03809068 18.79295116 -1.02049384 10.39648382 -1 2 C-13.375 2.99 -13.375 2.99 -26 4 C-26 3.34 -26 2.68 -26 2 C-17.35111056 0.5670479 -8.78553329 -0.66160759 0 0 Z " fill="#FAD08D" transform="translate(218,31)"/>
<path d="M0 0 C1 1 1 1 1.09765625 3.72265625 C1.08605469 4.82480469 1.07445312 5.92695313 1.0625 7.0625 C1.05347656 8.16722656 1.04445313 9.27195312 1.03515625 10.41015625 C1.02355469 11.26480469 1.01195312 12.11945313 1 13 C-0.89453125 12.71484375 -0.89453125 12.71484375 -3 12 C-3.556875 10.865625 -4.11375 9.73125 -4.6875 8.5625 C-5.92726064 6.17608327 -6.57340789 5.19657495 -9.04296875 4.05859375 C-13.58864311 2.96976388 -17.41774792 2.82506357 -22 4 C-22.33 3.34 -22.66 2.68 -23 2 C-27.32371893 4.02633069 -27.32371893 4.02633069 -31 7 C-31.24377883 10.35744112 -31.24377883 10.35744112 -31.125 14.125 C-31.10695313 15.40632813 -31.08890625 16.68765625 -31.0703125 18.0078125 C-31.04710937 18.99523437 -31.02390625 19.98265625 -31 21 C-33 20 -33 20 -34 17 C-34.34530278 11.64780697 -34.48807959 8.33002984 -31 4 C-22.38941672 -4.37140041 -10.71820508 -2.58065746 0 0 Z " fill="#E5AF6B" transform="translate(386,354)"/>
<path d="M0 0 C-2.89932865 1.93288577 -4.94840629 2.65977998 -8.25 3.625 C-16.02969199 6.15246032 -22.91083239 9.9886984 -30 14 C-31.12535156 14.62648438 -32.25070313 15.25296875 -33.41015625 15.8984375 C-38.70292491 18.90226407 -43.44739396 21.93171375 -48 26 C-49.81208127 27.4380278 -51.6246289 28.87546803 -53.4375 30.3125 C-57.6357442 33.72250243 -61.20300982 37.23579237 -64.5625 41.46875 C-66 43 -66 43 -69 44 C-63.94593835 31.03108708 -47.16571226 21.16316352 -36 14 C-35.39687988 13.61086426 -34.79375977 13.22172852 -34.17236328 12.82080078 C-27.20584504 8.40113942 -20.01668607 4.99340834 -12.375 1.9375 C-11.60422119 1.62578857 -10.83344238 1.31407715 -10.03930664 0.99291992 C-8.94863892 0.57683472 -8.94863892 0.57683472 -7.8359375 0.15234375 C-7.19188965 -0.09523682 -6.5478418 -0.34281738 -5.88427734 -0.59790039 C-3.62613353 -1.07978208 -2.17396693 -0.70646387 0 0 Z M-70 44 C-69.67 44.66 -69.34 45.32 -69 46 C-69.33 46.66 -69.66 47.32 -70 48 C-70.66 48 -71.32 48 -72 48 C-72.66 49.65 -73.32 51.3 -74 53 C-74.66 53 -75.32 53 -76 53 C-74.47291037 49.56404834 -72.40072955 46.88087546 -70 44 Z " fill="#E1B270" transform="translate(175,33)"/>
<path d="M0 0 C0.66 0 1.32 0 2 0 C2 12.21 2 24.42 2 37 C1.34 37 0.68 37 0 37 C0 25.78 0 14.56 0 3 C-2.97 4.98 -5.94 6.96 -9 9 C-11.64457605 10.37662863 -14.30457727 11.72580017 -17 13 C-16.5247412 14.64696604 -16.04468109 16.29254728 -15.5625 17.9375 C-15.16224609 19.31228516 -15.16224609 19.31228516 -14.75390625 20.71484375 C-14.20973949 22.9402493 -14.20973949 22.9402493 -13 24 C-12.50771613 27.51631336 -12.32902489 29.98864684 -14.33984375 33.01953125 C-15.83684272 34.74900536 -17.36595831 36.40000084 -19 38 C-19 35 -19 35 -16.875 31.6875 C-15.20222531 28.86801757 -14.92940925 28.37648399 -15.5625 25 C-16.036875 24.01 -16.51125 23.02 -17 22 C-20 15.55555556 -20 15.55555556 -20 12.75 C-17.15569296 7.77246269 -8.67538414 5.13243507 -3.765625 2.5234375 C-1.16565789 1.2583864 -1.16565789 1.2583864 0 0 Z " fill="#D6AC72" transform="translate(259,208)"/>
<path d="M0 0 C0.99 0 1.98 0 3 0 C2.85923685 1.9587043 2.7122324 3.91696093 2.5625 5.875 C2.48128906 6.96554687 2.40007812 8.05609375 2.31640625 9.1796875 C2 12 2 12 1 14 C-9.23 14 -19.46 14 -30 14 C-30 13.67 -30 13.34 -30 13 C-22.08 12.505 -22.08 12.505 -14 12 C-16.31 11.34 -18.62 10.68 -21 10 C-21 9.67 -21 9.34 -21 9 C-20.11957031 8.96261719 -19.23914063 8.92523438 -18.33203125 8.88671875 C-16.58986328 8.78810547 -16.58986328 8.78810547 -14.8125 8.6875 C-13.08966797 8.60048828 -13.08966797 8.60048828 -11.33203125 8.51171875 C-7.80269859 7.96969932 -5.84289919 7.12324248 -3 5 C-1.99431758 3.33675599 -0.99335201 1.67063747 0 0 Z " fill="#D6AA6E" transform="translate(148,392)"/>
<path d="M0 0 C5.94075217 -0.02488393 11.8814734 -0.0429465 17.82226562 -0.05493164 C19.83952361 -0.05993284 21.85677803 -0.06673594 23.87402344 -0.07543945 C26.78842048 -0.08769087 29.70276923 -0.09327059 32.6171875 -0.09765625 C33.50614716 -0.10281754 34.39510681 -0.10797882 35.31100464 -0.11329651 C41.26336275 -0.1138192 47.08933519 0.30168463 53 1 C53 1.33 53 1.66 53 2 C27.755 2.495 27.755 2.495 2 3 C1.67 3.99 1.34 4.98 1 6 C1.556875 5.97679687 2.11375 5.95359375 2.6875 5.9296875 C8.17609015 5.79988976 12.7293351 6.46671566 18 8 C18 8.33 18 8.66 18 9 C11.13484138 9.26404456 4.74153283 8.25841946 -2 7 C-1.34 4.69 -0.68 2.38 0 0 Z " fill="#CB9B54" transform="translate(87,131)"/>
<path d="M0 0 C-3.21955234 2.14636823 -5.93120333 2.99392308 -9.625 4.125 C-27.0227337 9.72193706 -41.85849761 18.4181219 -55.8203125 30.21484375 C-58 32 -58 32 -60 33 C-58.43464572 28.91480711 -55.5194212 26.48819424 -52.25 23.75 C-51.67725342 23.26837402 -51.10450684 22.78674805 -50.5144043 22.29052734 C-44.45310817 17.33853639 -37.91854093 13.61182471 -31 10 C-30.11441406 9.51789062 -29.22882813 9.03578125 -28.31640625 8.5390625 C-22.87701681 5.66706488 -17.33337172 3.64090554 -11.46875 1.796875 C-7.28871218 0.44762229 -4.53056051 -0.08389927 0 0 Z " fill="#F1CA8A" transform="translate(182,37)"/>
<path d="M0 0 C2.64 0 5.28 0 8 0 C8 0.99 8 1.98 8 3 C6.02 3.99 6.02 3.99 4 5 C3.67 19.19 3.34 33.38 3 48 C2.34 48 1.68 48 1 48 C0.97527722 41.94938454 0.95712914 35.89879851 0.94506836 29.84814453 C0.94004027 27.78987109 0.93321694 25.73160122 0.92456055 23.67333984 C0.91242834 20.71450926 0.90675643 17.75572592 0.90234375 14.796875 C0.89718246 13.87694763 0.89202118 12.95702026 0.88670349 12.00921631 C0.88662796 11.1486261 0.88655243 10.28803589 0.88647461 9.40136719 C0.884254 8.64635925 0.88203339 7.89135132 0.87974548 7.11346436 C1.00224025 4.9606277 1.40871581 3.06919263 2 1 C1.34 0.67 0.68 0.34 0 0 Z " fill="#E2B374" transform="translate(124,353)"/>
<path d="M0 0 C0 3.3 0 6.6 0 10 C-2 6 -2 6 -2 2 C-3.99954746 1.95745644 -6.00041636 1.95919217 -8 2 C-8.33 2.33 -8.66 2.66 -9 3 C-11.42490371 3.11322434 -13.82026862 3.16416875 -16.24609375 3.16796875 C-16.97240494 3.17129715 -17.69871613 3.17462555 -18.44703674 3.17805481 C-19.98625046 3.18312675 -21.5254752 3.18546305 -23.06469727 3.18530273 C-25.42417471 3.18748766 -27.78318361 3.20563565 -30.14257812 3.22460938 C-31.63541506 3.22754352 -33.12825423 3.22952817 -34.62109375 3.23046875 C-35.68365639 3.24124702 -35.68365639 3.24124702 -36.76768494 3.25224304 C-41.77117663 3.22882337 -41.77117663 3.22882337 -44 1 C-29.32415994 0.32417442 -14.69202847 -0.15760221 0 0 Z " fill="#E5B86C" transform="translate(226,108)"/>
<path d="M0 0 C2.43775269 3.65662904 2.34686544 6.49415429 2.4140625 10.73046875 C2.43342865 11.48088943 2.4527948 12.23131012 2.4727478 13.00447083 C2.53247459 15.39869867 2.57890065 17.79297477 2.625 20.1875 C2.6631862 21.8118698 2.70223831 23.43621948 2.7421875 25.06054688 C2.83817025 29.04020105 2.92222636 33.01995001 3 37 C6.3 35.68 9.6 34.36 13 33 C13 33.99 13 34.98 13 36 C7.06 38.475 7.06 38.475 1 41 C0 40 0 40 -0.11352539 36.21459961 C-0.11336622 34.52717271 -0.10766917 32.83974095 -0.09765625 31.15234375 C-0.0962413 30.2659169 -0.09482635 29.37949005 -0.09336853 28.46620178 C-0.08775215 25.62326746 -0.07519691 22.78041069 -0.0625 19.9375 C-0.05748711 18.01497509 -0.05292384 16.09244896 -0.04882812 14.16992188 C-0.03777741 9.44658451 -0.02050183 4.72330542 0 0 Z " fill="#D0A461" transform="translate(272,261)"/>
<path d="M0 0 C0.99 0 1.98 0 3 0 C2.67 12.54 2.34 25.08 2 38 C3.32 38.33 4.64 38.66 6 39 C3 41 3 41 0 41 C0 27.47 0 13.94 0 0 Z " fill="#DEB169" transform="translate(303,242)"/>
<path d="M0 0 C0.99 0.33 1.98 0.66 3 1 C2.47792969 1.40089844 1.95585937 1.80179688 1.41796875 2.21484375 C-1.0639045 4.13166705 -3.53331403 6.06366931 -6 8 C-6.92425781 8.721875 -7.84851563 9.44375 -8.80078125 10.1875 C-13.92722449 14.27163735 -18.48120015 18.32631219 -22.5625 23.46875 C-24 25 -24 25 -27 26 C-24.97345484 21.55016267 -22.00051695 18.65701508 -18.5625 15.25 C-17.94012451 14.63181396 -17.31774902 14.01362793 -16.67651367 13.37670898 C-11.6103798 8.43226071 -6.30839344 3.31609354 0 0 Z M-28 26 C-27.67 26.66 -27.34 27.32 -27 28 C-27.33 28.66 -27.66 29.32 -28 30 C-28.66 30 -29.32 30 -30 30 C-30.66 31.65 -31.32 33.3 -32 35 C-32.66 35 -33.32 35 -34 35 C-32.47291037 31.56404834 -30.40072955 28.88087546 -28 26 Z " fill="#DCA967" transform="translate(133,51)"/>
<path d="M0 0 C0.66 0 1.32 0 2 0 C1.37394247 6.51099831 1.37394247 6.51099831 -0.625 9.125 C-2.31654111 10.98693672 -2.31654111 10.98693672 -1.6875 13.75 C-1.3471875 14.86375 -1.3471875 14.86375 -1 16 C-4 18 -4 18 -7 18 C-7.33 17.34 -7.66 16.68 -8 16 C-8.72445313 16.04640625 -9.44890625 16.0928125 -10.1953125 16.140625 C-19.08205463 16.47239671 -19.08205463 16.47239671 -22.6875 14.1875 C-23.8321875 13.1046875 -23.8321875 13.1046875 -25 12 C-25 11.01 -25 10.02 -25 9 C-23.824375 9.99 -23.824375 9.99 -22.625 11 C-18.34814429 13.85462341 -13.96273678 13.67221017 -9 13 C-5.28264918 11.57633373 -4.29009028 10.48693726 -2.25 7.0625 C-1.27806183 4.68125147 -0.48380137 2.51576713 0 0 Z " fill="#E8B56E" transform="translate(327,387)"/>
<path d="M0 0 C-1.32 0.33 -2.64 0.66 -4 1 C-4.33 2.32 -4.66 3.64 -5 5 C-6.98 5.33 -8.96 5.66 -11 6 C-11.33 5.34 -11.66 4.68 -12 4 C-16.32371893 6.02633069 -16.32371893 6.02633069 -20 9 C-20.24377883 12.35744112 -20.24377883 12.35744112 -20.125 16.125 C-20.10695313 17.40632813 -20.08890625 18.68765625 -20.0703125 20.0078125 C-20.04710937 20.99523437 -20.02390625 21.98265625 -20 23 C-22 22 -22 22 -23 19 C-23.34530278 13.64780697 -23.48807959 10.33002984 -20 6 C-14.14106686 0.303815 -7.78724062 -0.27323651 0 0 Z " fill="#E8B875" transform="translate(375,352)"/>
<path d="M0 0 C2.875 -0.1875 2.875 -0.1875 6 0 C8.11696713 3.17545069 8.23239282 3.70855825 8.04345703 7.2878418 C8.00326447 8.14850754 7.9630719 9.00917328 7.92166138 9.8959198 C7.86759125 10.82100845 7.81352112 11.74609711 7.7578125 12.69921875 C7.71059052 13.64940384 7.66336853 14.59958893 7.61471558 15.5785675 C7.46148019 18.61548941 7.29341976 21.65138598 7.125 24.6875 C7.0185545 26.74539242 6.91307371 28.80333498 6.80859375 30.86132812 C6.55025617 35.90820225 6.27861953 40.95420657 6 46 C5.67 46 5.34 46 5 46 C5.01047363 44.83428467 5.02094727 43.66856934 5.03173828 42.4675293 C5.06791722 38.14578315 5.09089281 33.82405041 5.10986328 29.50219727 C5.11992567 27.63108062 5.13357691 25.75997972 5.15087891 23.88891602 C5.17511684 21.20064409 5.18648063 18.51257994 5.1953125 15.82421875 C5.20563507 14.98662521 5.21595764 14.14903168 5.22659302 13.28605652 C5.23304617 8.34900507 5.23304617 8.34900507 3 4 C2.01 3.67 1.02 3.34 0 3 C0 2.01 0 1.02 0 0 Z M8 1 C11 2 11 2 11 2 Z " fill="#E6CA42" transform="translate(111,353)"/>
<path d="M0 0 C2.69082872 0.17635452 5.32851446 0.61835921 8 1 C5 3 5 3 3 4 C2.67 20.5 2.34 37 2 54 C1.67 54 1.34 54 1 54 C0.98969254 53.4097554 0.97938507 52.8195108 0.96876526 52.21138 C0.86050894 46.06309358 0.74592674 39.91494804 0.62768555 33.7668457 C0.58439801 31.4729304 0.54271858 29.17898417 0.50268555 26.88500977 C0.44483334 23.58600546 0.38118178 20.28715599 0.31640625 16.98828125 C0.29969376 15.96414627 0.28298126 14.94001129 0.26576233 13.88484192 C0.24581711 12.92422348 0.22587189 11.96360504 0.20532227 10.97387695 C0.18977798 10.13226517 0.1742337 9.29065338 0.15821838 8.42353821 C0.05245055 5.92919901 0.05245055 5.92919901 -0.57533264 3.25163269 C-0.71547287 2.5085939 -0.8556131 1.76555511 -1 1 C-0.67 0.67 -0.34 0.34 0 0 Z " fill="#FBC198" transform="translate(240,28)"/>
<path d="M0 0 C0.33 0 0.66 0 1 0 C1 2.64 1 5.28 1 8 C-2.97915085 8.02934144 -6.95827337 8.04691265 -10.9375 8.0625 C-12.05447266 8.07087891 -13.17144531 8.07925781 -14.32226562 8.08789062 C-20.63992667 8.10641749 -26.73763227 7.84339417 -33 7 C-31 5 -31 5 -28.01904297 4.86474609 C-26.77268066 4.91711426 -25.52631836 4.96948242 -24.2421875 5.0234375 C-23.57913605 5.04846344 -22.91608459 5.07348938 -22.23294067 5.09927368 C-20.11310985 5.18151267 -17.99420563 5.27808365 -15.875 5.375 C-14.43884006 5.43323582 -13.00264198 5.49053919 -11.56640625 5.546875 C-8.04376398 5.68709542 -4.5218134 5.840176 -1 6 C-1.020625 5.195625 -1.04125 4.39125 -1.0625 3.5625 C-1 1 -1 1 0 0 Z " fill="#DDB677" transform="translate(225,143)"/>
<path d="M0 0 C3.69590313 3.69590313 2.50038054 9.69363598 2.5625 14.6875 C2.63694336 16.44610352 2.63694336 16.44610352 2.71289062 18.24023438 C2.78207857 24.07508482 2.79055826 28.00491392 -1.41015625 32.33203125 C-4.54084893 35 -4.54084893 35 -7 35 C-7 34.34 -7 33.68 -7 33 C-6.34 33 -5.68 33 -5 33 C-5 32.34 -5 31.68 -5 31 C-4.34 31 -3.68 31 -3 31 C-2.67 30.01 -2.34 29.02 -2 28 C-1.34 28 -0.68 28 0 28 C0 18.76 0 9.52 0 0 Z " fill="#E4B676" transform="translate(320,241)"/>
<path d="M0 0 C4.34161825 -0.04952706 8.68308575 -0.08577954 13.02490234 -0.10986328 C14.50116847 -0.11990591 15.97741479 -0.13354265 17.45361328 -0.15087891 C19.57850034 -0.17520421 21.70312385 -0.1865004 23.828125 -0.1953125 C25.1059082 -0.20578613 26.38369141 -0.21625977 27.70019531 -0.22705078 C31 0 31 0 35 2 C23.78 2.33 12.56 2.66 1 3 C0.67 2.01 0.34 1.02 0 0 Z " fill="#DAB071" transform="translate(153,110)"/>
<path d="M0 0 C3.26739717 1.63369858 3.71704704 4.70894675 5 8 C5.35137088 9.32869387 5.68966517 10.6611269 6 12 C-5.74242159 17.95797746 -5.74242159 17.95797746 -9.875 19.5625 C-13.56128693 21.25819199 -15.99806109 23.29093318 -19 26 C-17.29923771 20.53722548 -14.62667596 19.13724285 -9.8203125 16.42578125 C-5.65451121 14.31980137 -1.38704655 12.58680407 3 11 C2.7834375 10.45730469 2.566875 9.91460937 2.34375 9.35546875 C2.0653125 8.64003906 1.786875 7.92460937 1.5 7.1875 C1.2215625 6.47980469 0.943125 5.77210938 0.65625 5.04296875 C0 3 0 3 0 0 Z " fill="#ECBD6E" transform="translate(225,182)"/>
<path d="M0 0 C1.65 0 3.3 0 5 0 C5.33 0.99 5.66 1.98 6 3 C4.02 3.99 4.02 3.99 2 5 C1.98018066 5.64549805 1.96036133 6.29099609 1.93994141 6.95605469 C1.84453672 9.88777221 1.73492029 12.81879232 1.625 15.75 C1.5940625 16.76578125 1.563125 17.7815625 1.53125 18.828125 C1.49257812 19.8078125 1.45390625 20.7875 1.4140625 21.796875 C1.36693115 23.14797363 1.36693115 23.14797363 1.31884766 24.52636719 C1 27 1 27 -1 31 C-1 22.09 -1 13.18 -1 4 C-0.34 4 0.32 4 1 4 C0.67 2.68 0.34 1.36 0 0 Z " fill="#F4AE71" transform="translate(175,353)"/>
<path d="M0 0 C0.66 0 1.32 0 2 0 C3.65583573 4.03764004 5.29787921 8.08075117 6.9375 12.125 C7.40607422 13.26710937 7.87464844 14.40921875 8.35742188 15.5859375 C8.80537109 16.69453125 9.25332031 17.803125 9.71484375 18.9453125 C10.12855225 19.96125488 10.54226074 20.97719727 10.96850586 22.02392578 C12.00679418 25.01960262 12.57269938 27.86373614 13 31 C12.34 31 11.68 31 11 31 C9.32438263 26.67008608 7.65938705 22.33615507 6 18 C5.72752441 17.28924316 5.45504883 16.57848633 5.17431641 15.84619141 C4.3416565 13.66969082 3.51397902 11.4913542 2.6875 9.3125 C2.42114746 8.61769531 2.15479492 7.92289063 1.88037109 7.20703125 C0 2.22892472 0 2.22892472 0 0 Z " fill="#EEBE7A" transform="translate(228,165)"/>
<path d="M0 0 C-0.33 0.99 -0.66 1.98 -1 3 C-5.06248489 3.02909769 -9.12494286 3.04683174 -13.1875 3.0625 C-14.91323242 3.07506836 -14.91323242 3.07506836 -16.67382812 3.08789062 C-17.78564453 3.09111328 -18.89746094 3.09433594 -20.04296875 3.09765625 C-21.06414795 3.10289307 -22.08532715 3.10812988 -23.13745117 3.11352539 C-25.86901616 3.00519467 -28.34169374 2.61706868 -31 2 C-31 1.67 -31 1.34 -31 1 C-27.52099567 0.82982885 -24.041776 0.66451529 -20.5625 0.5 C-19.58861328 0.45230469 -18.61472656 0.40460938 -17.61132812 0.35546875 C-11.73282211 0.08022098 -5.88489861 -0.04868582 0 0 Z " fill="#BC985E" transform="translate(132,111)"/>
<path d="M0 0 C12.66970387 1.74259681 12.66970387 1.74259681 18 5 C15.82467143 7.17532857 14.89725531 7.3662254 12 8 C11.01 8.495 11.01 8.495 10 9 C10 8.34 10 7.68 10 7 C9.46375 6.9175 8.9275 6.835 8.375 6.75 C5.12659309 5.72418729 2.71248141 4.03436106 0 2 C0 1.34 0 0.68 0 0 Z " fill="#F7CE90" transform="translate(263,35)"/>
<path d="M0 0 C0.99 0 1.98 0 3 0 C2.67 3.96 2.34 7.92 2 12 C1.67 12 1.34 12 1 12 C1 9.69 1 7.38 1 5 C0.071875 5.804375 -0.85625 6.60875 -1.8125 7.4375 C-5.78332378 10.87888061 -9.01575637 11.11811015 -14.1875 11.0625 C-15.81751953 11.04896484 -15.81751953 11.04896484 -17.48046875 11.03515625 C-18.31191406 11.02355469 -19.14335937 11.01195312 -20 11 C-20.33 10.34 -20.66 9.68 -21 9 C-20.11957031 8.96261719 -19.23914063 8.92523438 -18.33203125 8.88671875 C-16.58986328 8.78810547 -16.58986328 8.78810547 -14.8125 8.6875 C-13.08966797 8.60048828 -13.08966797 8.60048828 -11.33203125 8.51171875 C-7.80269859 7.96969932 -5.84289919 7.12324248 -3 5 C-1.99431758 3.33675599 -0.99335201 1.67063747 0 0 Z " fill="#E7B66E" transform="translate(148,392)"/>
<path d="M0 0 C1.1240625 -0.00257812 2.248125 -0.00515625 3.40625 -0.0078125 C5.9720699 0.10233633 8.06266427 0.37229338 10.5 1.125 C10.17 3.435 9.84 5.745 9.5 8.125 C9.17 8.125 8.84 8.125 8.5 8.125 C8.5 6.475 8.5 4.825 8.5 3.125 C2.23 3.125 -4.04 3.125 -10.5 3.125 C-10.5 2.465 -10.5 1.805 -10.5 1.125 C-6.96994485 0.03483591 -3.68121037 -0.00844314 0 0 Z " fill="#EFD6A6" transform="translate(215.5,24.875)"/>
<path d="M0 0 C1.04796218 0.84643099 2.08792692 1.70276192 3.125 2.5625 C3.70507812 3.03816406 4.28515625 3.51382813 4.8828125 4.00390625 C5.58148438 4.66261719 6.28015625 5.32132812 7 6 C7.51739746 6.465271 8.03479492 6.93054199 8.56787109 7.40991211 C11.95561479 10.80116279 13.38983275 13.21064947 13.5859375 18.05859375 C13.54651083 19.85250744 13.47560396 21.64597561 13.375 23.4375 C13.34792969 24.35982422 13.32085937 25.28214844 13.29296875 26.23242188 C13.22276119 28.4907652 13.12452894 30.74411037 13 33 C12.67 33 12.34 33 12 33 C11.96261719 31.83082031 11.92523438 30.66164063 11.88671875 29.45703125 C11.8210372 27.90882325 11.75459061 26.36064758 11.6875 24.8125 C11.66494141 24.04357422 11.64238281 23.27464844 11.61914062 22.48242188 C11.24932887 14.64913654 8.1913406 10.92373519 2.5234375 5.74609375 C0.84608006 3.82358407 0.40330383 2.49067366 0 0 Z " fill="#FCE494" transform="translate(315,63)"/>
<path d="M0 0 C0.33 0 0.66 0 1 0 C1.10481309 5.76471999 0.73291127 11.2852729 0 17 C-0.09539062 17.77472656 -0.19078125 18.54945313 -0.2890625 19.34765625 C-0.52173549 21.23230746 -0.76024825 23.11623622 -1 25 C-1.99 25 -2.98 25 -4 25 C-3.5946828 16.33459773 -2.38994476 8.34226001 0 0 Z " fill="#CF9B4D" transform="translate(77,130)"/>
<path d="M0 0 C2 1 2 1 2 1 Z M-3 1 C-2.01 1.33 -1.02 1.66 0 2 C-0.33 2.99 -0.66 3.98 -1 5 C-0.23759031 7.08757561 -0.23759031 7.08757561 0.9375 9.25 C2.85953543 13.41778209 3.86026001 16.35459596 3 21 C1.23833581 23.59158114 -0.76398519 25.81056883 -3 28 C-3 25 -3 25 -0.875 21.6875 C0.79777469 18.86801757 1.07059075 18.37648399 0.4375 15 C-0.036875 14.01 -0.51125 13.02 -1 12 C-4.05584512 5.43559196 -4.05584512 5.43559196 -3.6875 2.5625 C-3.460625 2.046875 -3.23375 1.53125 -3 1 Z " fill="#DBB55D" transform="translate(243,218)"/>
<path d="M0 0 C6.23021458 0.93576346 11.11211886 1.88388957 16 6 C16 6.66 16 7.32 16 8 C15.484375 7.731875 14.96875 7.46375 14.4375 7.1875 C11.33598585 5.67650593 8.17737194 4.34427274 5 3 C5 4.32 5 5.64 5 7 C0.545 6.01 0.545 6.01 -4 5 C-3.34 4.54625 -2.68 4.0925 -2 3.625 C-1.34 3.08875 -0.68 2.5525 0 2 C0 1.34 0 0.68 0 0 Z " fill="#E9BA74" transform="translate(79,353)"/>
<path d="M0 0 C3.3 0 6.6 0 10 0 C10.66 2.97 11.32 5.94 12 9 C11.34 9 10.68 9 10 9 C9.34 7.02 8.68 5.04 8 3 C5.69 2.67 3.38 2.34 1 2 C1.66 4.64 2.32 7.28 3 10 C2.01 10.495 2.01 10.495 1 11 C-0.62950412 6.87831311 -1.26264601 4.29299643 0 0 Z " fill="#EFC67A" transform="translate(217,154)"/>
<path d="M0 0 C0.66 0 1.32 0 2 0 C2 3.3 2 6.6 2 10 C1.34 10 0.68 10 0 10 C0 7.69 0 5.38 0 3 C-0.54527344 3.40992188 -1.09054687 3.81984375 -1.65234375 4.2421875 C-7.08711723 8.12549573 -11.4035994 9.95295229 -18 11 C-16.76973303 8.53946606 -15.87932948 8.26984232 -13.4375 7.08984375 C-12.72335938 6.73986328 -12.00921875 6.38988281 -11.2734375 6.02929688 C-10.52320313 5.66900391 -9.77296875 5.30871094 -9 4.9375 C-4.18067029 2.91471998 -4.18067029 2.91471998 0 0 Z " fill="#E0B166" transform="translate(259,208)"/>
<path d="M0 0 C3.95827235 -0.05785647 7.9164367 -0.09354717 11.875 -0.125 C13.00292969 -0.14175781 14.13085938 -0.15851563 15.29296875 -0.17578125 C16.36933594 -0.18222656 17.44570312 -0.18867187 18.5546875 -0.1953125 C19.54968262 -0.20578613 20.54467773 -0.21625977 21.56982422 -0.22705078 C24 0 24 0 26 2 C22.52300537 2.80866672 19.47837556 3.07549313 15.91796875 2.87890625 C14.98662109 2.83056641 14.05527344 2.78222656 13.09570312 2.73242188 C12.13599609 2.67634766 11.17628906 2.62027344 10.1875 2.5625 C9.20845703 2.51029297 8.22941406 2.45808594 7.22070312 2.40429688 C4.8134391 2.27512661 2.40664362 2.14018357 0 2 C0 1.34 0 0.68 0 0 Z " fill="#DCB877" transform="translate(200,127)"/>
<path d="M0 0 C-1.31031702 3.93095107 -3.74216519 5.09443587 -7.0625 7.25 C-12.39938498 10.81551212 -17.31299884 14.59620133 -22 19 C-22 16 -22 16 -20.53125 14.38671875 C-19.8609375 13.82597656 -19.190625 13.26523438 -18.5 12.6875 C-17.77296875 12.07777344 -17.0459375 11.46804687 -16.296875 10.83984375 C-12.9259623 8.13967389 -9.48616835 5.54871131 -6 3 C-5.30390625 2.44828125 -4.6078125 1.8965625 -3.890625 1.328125 C-2 0 -2 0 0 0 Z " fill="#E6B370" transform="translate(145,51)"/>
<path d="M0 0 C3.3 0 6.6 0 10 0 C10.33 3.3 10.66 6.6 11 10 C10.01 10.33 9.02 10.66 8 11 C7 8 6 5 5 2 C3.35 1.67 1.7 1.34 0 1 C0 0.67 0 0.34 0 0 Z " fill="#DBB170" transform="translate(261,355)"/>
<path d="M0 0 C-2.60271355 2.60271355 -4.68055799 2.85218537 -8.25 3.6875 C-9.36890625 3.95949219 -10.4878125 4.23148438 -11.640625 4.51171875 C-15.07701221 5.01119363 -17.63221918 4.76030203 -21 4 C-17.61847808 2.10203794 -14.26563452 1.19776958 -10.5 0.3125 C-9.3759375 0.04050781 -8.251875 -0.23148438 -7.09375 -0.51171875 C-4.2315358 -0.9634571 -2.67758663 -0.97784414 0 0 Z " fill="#E6BD7F" transform="translate(195,28)"/>
<path d="M0 0 C0.33 0.99 0.66 1.98 1 3 C1.66 3.66 2.32 4.32 3 5 C1.35 5 -0.3 5 -2 5 C-1.01 5.66 -0.02 6.32 1 7 C-0.79093191 7.08086147 -2.58289628 7.13912702 -4.375 7.1875 C-5.87160156 7.23970703 -5.87160156 7.23970703 -7.3984375 7.29296875 C-8.25695312 7.19628906 -9.11546875 7.09960938 -10 7 C-10.66 6.01 -11.32 5.02 -12 4 C-11.38511719 3.87882812 -10.77023438 3.75765625 -10.13671875 3.6328125 C-9.32847656 3.46523438 -8.52023438 3.29765625 -7.6875 3.125 C-6.88699219 2.96257812 -6.08648437 2.80015625 -5.26171875 2.6328125 C-2.74698882 2.05521001 -2.74698882 2.05521001 0 0 Z " fill="#F2BF76" transform="translate(83,377)"/>
<path d="M0 0 C0.33 0 0.66 0 1 0 C1.48062124 2.68724704 1.95953496 5.37478033 2.4375 8.0625 C2.57220703 8.81466797 2.70691406 9.56683594 2.84570312 10.34179688 C3.6521177 14.88525458 4.37461944 19.42804307 5 24 C4.34 24 3.68 24 3 24 C2.29850392 21.12777999 1.61354667 18.25321849 0.9375 15.375 C0.73833984 14.56675781 0.53917969 13.75851563 0.33398438 12.92578125 C-0.74292002 8.2780886 -1.21667865 4.72897741 0 0 Z " fill="#CF9A4F" transform="translate(80,186)"/>
<path d="M0 0 C0.66 0.33 1.32 0.66 2 1 C2.12910853 7.74233419 1.797837 14.30386804 1 21 C-0.65 21 -2.3 21 -4 21 C-4.33 20.34 -4.66 19.68 -5 19 C-3.68 19 -2.36 19 -1 19 C-1.01160156 17.71222656 -1.02320313 16.42445313 -1.03515625 15.09765625 C-1.0445327 13.41927228 -1.05363305 11.74088674 -1.0625 10.0625 C-1.07087891 9.21236328 -1.07925781 8.36222656 -1.08789062 7.48632812 C-1.09111328 6.67744141 -1.09433594 5.86855469 -1.09765625 5.03515625 C-1.10289307 4.2862915 -1.10812988 3.53742676 -1.11352539 2.76586914 C-1 1 -1 1 0 0 Z " fill="#D5A94E" transform="translate(212,284)"/>
<path d="M0 0 C0.99773437 0.02320313 1.99546875 0.04640625 3.0234375 0.0703125 C4.52777344 0.09738281 4.52777344 0.09738281 6.0625 0.125 C6.83335937 0.14820313 7.60421875 0.17140625 8.3984375 0.1953125 C8.3984375 1.8453125 8.3984375 3.4953125 8.3984375 5.1953125 C7.7384375 4.5353125 7.0784375 3.8753125 6.3984375 3.1953125 C4.19592758 2.73524904 4.19592758 2.73524904 1.7734375 2.5703125 C0.54753906 2.45816406 0.54753906 2.45816406 -0.703125 2.34375 C-1.32960937 2.29476562 -1.95609375 2.24578125 -2.6015625 2.1953125 C-2.8903125 2.8346875 -3.1790625 3.4740625 -3.4765625 4.1328125 C-4.6015625 6.1953125 -4.6015625 6.1953125 -6.6015625 7.1953125 C-4.06303844 0.30503292 -4.06303844 0.30503292 0 0 Z " fill="#E3B263" transform="translate(213.6015625,233.8046875)"/>
<path d="M0 0 C0 0.66 0 1.32 0 2 C-3.09750602 3.36978501 -6.20391657 4.71806572 -9.3125 6.0625 C-10.19357422 6.45244141 -11.07464844 6.84238281 -11.98242188 7.24414062 C-12.82998047 7.60830078 -13.67753906 7.97246094 -14.55078125 8.34765625 C-15.33106689 8.68804932 -16.11135254 9.02844238 -16.9152832 9.37915039 C-19 10 -19 10 -22 9 C-10.52427184 3 -10.52427184 3 -5 3 C-5 2.34 -5 1.68 -5 1 C-2 0 -2 0 0 0 Z " fill="#EDC36D" transform="translate(240,199)"/>
<path d="M0 0 C0.928125 0.103125 1.85625 0.20625 2.8125 0.3125 C3.1425 0.9725 3.4725 1.6325 3.8125 2.3125 C2.884375 2.333125 1.95625 2.35375 1 2.375 C-2.19446214 2.94094359 -2.19446214 2.94094359 -3.25390625 4.9375 C-3.98724771 6.69468533 -4.59525925 8.50287549 -5.1875 10.3125 C-4.1975 9.9825 -3.2075 9.6525 -2.1875 9.3125 C-1.8575 9.9725 -1.5275 10.6325 -1.1875 11.3125 C-3.1675 11.3125 -5.1475 11.3125 -7.1875 11.3125 C-5.93980627 0.58233395 -5.93980627 0.58233395 0 0 Z " fill="#C09454" transform="translate(97.1875,112.6875)"/>
<path d="M0 0 C0.66 0 1.32 0 2 0 C2 3.63 2 7.26 2 11 C3.32 11.33 4.64 11.66 6 12 C3 14 3 14 0 14 C0 9.38 0 4.76 0 0 Z " fill="#E4B958" transform="translate(303,269)"/>
<path d="M0 0 C4.95 0 9.9 0 15 0 C15 0.99 15 1.98 15 3 C12.5 5.1875 12.5 5.1875 10 7 C9.67 5.35 9.34 3.7 9 2 C6.03 1.67 3.06 1.34 0 1 C0 0.67 0 0.34 0 0 Z " fill="#F3BF6A" transform="translate(289,353)"/>
<path d="M0 0 C4.29 0 8.58 0 13 0 C13 0.66 13 1.32 13 2 C10.47524538 3.26237731 8.68799534 3.09856404 5.875 3.0625 C4.96492187 3.05347656 4.05484375 3.04445313 3.1171875 3.03515625 C2.41851562 3.02355469 1.71984375 3.01195313 1 3 C0.67 2.01 0.34 1.02 0 0 Z " fill="#D4AD58" transform="translate(153,110)"/>
<path d="M0 0 C0.66 0.33 1.32 0.66 2 1 C-0.5988655 4.03656917 -3.62071728 5.46163739 -7.1875 7.1875 C-8.27417969 7.71730469 -9.36085937 8.24710938 -10.48046875 8.79296875 C-11.31191406 9.19128906 -12.14335937 9.58960938 -13 10 C-11.510461 5.93036665 -9.2524608 4.67729172 -5.5 2.6875 C-4.5203125 2.15511719 -3.540625 1.62273438 -2.53125 1.07421875 C-1.27828125 0.54248047 -1.27828125 0.54248047 0 0 Z " fill="#ECBF7D" transform="translate(158,43)"/>
<path d="M0 0 C-2.43414237 1.62276158 -4.31319446 2.61744792 -7 3.625 C-7.680625 3.88539062 -8.36125 4.14578125 -9.0625 4.4140625 C-11 5 -11 5 -14 5 C-14 4.34 -14 3.68 -14 3 C-12.42274653 2.29866401 -10.83788667 1.614417 -9.25 0.9375 C-7.92742187 0.36322266 -7.92742187 0.36322266 -6.578125 -0.22265625 C-3.84743691 -1.04600008 -2.63098653 -0.9773992 0 0 Z " fill="#E5BD7D" transform="translate(175,33)"/>
<path d="M0 0 C0.99 0 1.98 0 3 0 C3.33 1.98 3.66 3.96 4 6 C3.01 6.495 3.01 6.495 2 7 C1.59270772 9.32156597 1.25561323 11.6568787 1 14 C0.67 14 0.34 14 0 14 C0 9.38 0 4.76 0 0 Z " fill="#E5AE6F" transform="translate(352,390)"/>
<path d="M0 0 C6.93 0.495 6.93 0.495 14 1 C14 1.66 14 2.32 14 3 C4.58997722 3.18451025 4.58997722 3.18451025 0 2 C0 1.34 0 0.68 0 0 Z " fill="#D09C53" transform="translate(190,302)"/>
<path d="M0 0 C0 4.29 0 8.58 0 13 C-0.99 13.495 -0.99 13.495 -2 14 C-3.10228696 9.59085217 -3.07654536 5.51617599 -3 1 C-1 0 -1 0 0 0 Z " fill="#D2B23E" transform="translate(244,290)"/>
<path d="M0 0 C2.7710688 2.34591852 3.52059284 4.14776201 4.1875 7.6875 C4.34605469 8.49574219 4.50460937 9.30398437 4.66796875 10.13671875 C4.77753906 10.75160156 4.88710938 11.36648437 5 12 C5.66 12 6.32 12 7 12 C6.67 13.32 6.34 14.64 6 16 C3.50063756 13.50063756 2.96276247 11.35191992 1.875 8 C1.52179688 6.9275 1.16859375 5.855 0.8046875 4.75 C0 2 0 2 0 0 Z " fill="#F8C486" transform="translate(254,178)"/>
<path d="M0 0 C2.97 0 5.94 0 9 0 C9 3.3 9 6.6 9 10 C7 6 7 6 7 2 C5.02 2 3.04 2 1 2 C0.67 1.34 0.34 0.68 0 0 Z " fill="#E8C484" transform="translate(217,108)"/>
<path d="M0 0 C2.31 0 4.62 0 7 0 C7 2.31 7 4.62 7 7 C6.34 7 5.68 7 5 7 C4.34 6.01 3.68 5.02 3 4 C2.01 3.67 1.02 3.34 0 3 C0 2.01 0 1.02 0 0 Z " fill="#DEB265" transform="translate(160,353)"/>
<path d="M0 0 C4.455 0.99 4.455 0.99 9 2 C9 2.66 9 3.32 9 4 C9.66 4.33 10.32 4.66 11 5 C10.01 5.33 9.02 5.66 8 6 C8 5.34 8 4.68 8 4 C6.02 4 4.04 4 2 4 C1.34 2.68 0.68 1.36 0 0 Z " fill="#E3B982" transform="translate(263,35)"/>
<path d="M0 0 C0.66 0 1.32 0 2 0 C1.72482232 4.67802059 -0.33193886 6.74638753 -3.52734375 9.86328125 C-5 11 -5 11 -7 11 C-7 10.34 -7 9.68 -7 9 C-6.34 9 -5.68 9 -5 9 C-5 8.34 -5 7.68 -5 7 C-4.34 7 -3.68 7 -3 7 C-2.67 6.01 -2.34 5.02 -2 4 C-1.34 4 -0.68 4 0 4 C0 2.68 0 1.36 0 0 Z " fill="#DAA86A" transform="translate(320,265)"/>
<path d="M0 0 C2.64 0 5.28 0 8 0 C8 0.99 8 1.98 8 3 C6.02 3.66 4.04 4.32 2 5 C2 3.68 2 2.36 2 1 C1.34 0.67 0.68 0.34 0 0 Z " fill="#EDAF6D" transform="translate(124,353)"/>
<path d="M0 0 C-0.33 0.66 -0.66 1.32 -1 2 C-3.06640625 2.6328125 -3.06640625 2.6328125 -5.5625 3.125 C-6.80193359 3.37636719 -6.80193359 3.37636719 -8.06640625 3.6328125 C-8.70449219 3.75398437 -9.34257812 3.87515625 -10 4 C-10.33 3.01 -10.66 2.02 -11 1 C-7.32589215 -0.17571451 -3.83070817 -0.07366746 0 0 Z " fill="#DEA968" transform="translate(196,225)"/>
<path d="M0 0 C4.29 0 8.58 0 13 0 C13 0.33 13 0.66 13 1 C12.04287109 1.07347656 12.04287109 1.07347656 11.06640625 1.1484375 C10.24011719 1.22320312 9.41382813 1.29796875 8.5625 1.375 C7.73878906 1.44460938 6.91507813 1.51421875 6.06640625 1.5859375 C5.38449219 1.72257812 4.70257813 1.85921875 4 2 C3.67 2.66 3.34 3.32 3 4 C2.01 3.67 1.02 3.34 0 3 C0 2.01 0 1.02 0 0 Z " fill="#EA9E70" transform="translate(198,353)"/>
<path d="M0 0 C0.99 0 1.98 0 3 0 C2.7834375 1.485 2.7834375 1.485 2.5625 3 C1.99074821 6.99409465 1.49180166 10.99532937 1 15 C0.67 15 0.34 15 0 15 C0 10.05 0 5.1 0 0 Z " fill="#D8AE77" transform="translate(303,242)"/>
<path d="M0 0 C2.97 0.495 2.97 0.495 6 1 C6 1.99 6 2.98 6 4 C3.69 4 1.38 4 -1 4 C-0.67 2.68 -0.34 1.36 0 0 Z " fill="#E5AB69" transform="translate(254,402)"/>
<path d="M0 0 C0.66 0 1.32 0 2 0 C2 3.3 2 6.6 2 10 C1.34 10 0.68 10 0 10 C0 7.69 0 5.38 0 3 C-0.66 2.67 -1.32 2.34 -2 2 C-1.34 1.34 -0.68 0.68 0 0 Z " fill="#E6B977" transform="translate(259,208)"/>
<path d="M0 0 C1.62463842 -0.05395478 3.24978541 -0.09277195 4.875 -0.125 C5.77992188 -0.14820312 6.68484375 -0.17140625 7.6171875 -0.1953125 C10 0 10 0 12 2 C7.48281619 3.36884358 4.41225737 2.47075246 0 1 C0 0.67 0 0.34 0 0 Z " fill="#EACB76" transform="translate(214,127)"/>
<path d="M0 0 C0.99 0 1.98 0 3 0 C3 2.64 3 5.28 3 8 C2.01 7.67 1.02 7.34 0 7 C0 4.69 0 2.38 0 0 Z " fill="#E19D75" transform="translate(165,360)"/>
<path d="M0 0 C0.66 0.66 1.32 1.32 2 2 C1.96712417 4.72869407 1.43602229 7.2966618 1 10 C0.01 10 -0.98 10 -2 10 C-2 8.35 -2 6.7 -2 5 C-1.67 5 -1.34 5 -1 5 C-0.67 3.35 -0.34 1.7 0 0 Z " fill="#BC8C50" transform="translate(75,145)"/>
<path d="M0 0 C0.66 0 1.32 0 2 0 C3.0064275 1.66279327 4.00585407 3.32983484 5 5 C5.99 5.66 6.98 6.32 8 7 C8 7.66 8 8.32 8 9 C4.20620942 7.50958227 2.31656242 5.30937488 0 2 C0 1.34 0 0.68 0 0 Z " fill="#DDB076" transform="translate(291,395)"/>
<path d="M0 0 C0.66 0 1.32 0 2 0 C2.50403768 1.29009643 3.00309926 2.58213789 3.5 3.875 C3.7784375 4.59429687 4.056875 5.31359375 4.34375 6.0546875 C5 8 5 8 5 10 C4.34 10 3.68 10 3 10 C2.01 6.7 1.02 3.4 0 0 Z " fill="#EDC388" transform="translate(236,186)"/>
<path d="M0 0 C3.625 0.375 3.625 0.375 7 1 C7.33 1.99 7.66 2.98 8 4 C4.7 3.34 1.4 2.68 -2 2 C-1.34 1.34 -0.68 0.68 0 0 Z " fill="#F3CD90" transform="translate(249,30)"/>
<path d="M0 0 C2 3.875 2 3.875 2 5 C0.02 5 -1.96 5 -4 5 C-4 4.01 -4 3.02 -4 2 C-2.68 1.34 -1.36 0.68 0 0 Z " fill="#E5B865" transform="translate(58,401)"/>
<path d="M0 0 C0.66 0 1.32 0 2 0 C2 2.64 2 5.28 2 8 C1.34 8 0.68 8 0 8 C-1.125 2.25 -1.125 2.25 0 0 Z " fill="#EEBA7E" transform="translate(259,182)"/>
<path d="M0 0 C0.66 0.33 1.32 0.66 2 1 C0.52307692 5.67692308 0.52307692 5.67692308 -2.125 7.3125 C-3.053125 7.6528125 -3.053125 7.6528125 -4 8 C-2.66666667 5.33333333 -1.33333333 2.66666667 0 0 Z " fill="#E1B96D" transform="translate(387,395)"/>
<path d="M0 0 C-1.0975223 2.99324263 -1.67682892 3.84610901 -4.625 5.25 C-5.40875 5.4975 -6.1925 5.745 -7 6 C-7.33 5.34 -7.66 4.68 -8 4 C-2.25 0 -2.25 0 0 0 Z " fill="#EAB470" transform="translate(95,376)"/>
<path d="M0 0 C2 1 2 1 2 1 Z M-3 1 C-2.01 1.33 -1.02 1.66 0 2 C-0.33 2.99 -0.66 3.98 -1 5 C-1 5.99 -1 6.98 -1 8 C-1.66 8 -2.32 8 -3 8 C-3.38133299 6.0085944 -3.71325582 4.00720923 -4 2 C-3.67 1.67 -3.34 1.34 -3 1 Z " fill="#D6A161" transform="translate(243,218)"/>
<path d="M0 0 C0.66 0 1.32 0 2 0 C1.40072174 3.35595828 0.15377564 5.37801226 -2 8 C-2.66 7.67 -3.32 7.34 -4 7 C-2.68 4.69 -1.36 2.38 0 0 Z " fill="#D4AB47" transform="translate(91,97)"/>
<path d="M0 0 C0.33 0 0.66 0 1 0 C1 3.3 1 6.6 1 10 C0.01 9.67 -0.98 9.34 -2 9 C-1.34 6.03 -0.68 3.06 0 0 Z " fill="#DFA464" transform="translate(385,357)"/>
</svg>
